# xmcd
#
# Track frame offsets:
#	150
#	24141
#	49263
#	72361
#	97268
#	117994
#	141344
#	164675
#	184247
#	205834
#
# Disc length: 3044 seconds
#
# Revision: 0
# Processed by: cddbd v1.5.2PL0 Copyright (c) Steve Scherf et al.
# Submitted via: FairStars CD Ripper 1.90
#
DISCID=960be20a
DTITLE=Huong Lan - Hat tu coi nguon
DYEAR=2007
DGENRE=Blues
TTITLE0=Hat tu coi nguon
TTITLE1=Ngoi buon nho me
TTITLE2=Cong cha nghia nang
TTITLE3=Thieng lieng tinh me
TTITLE4=Ong thoi lua
TTITLE5=A oi nghe tieng me ru
TTITLE6=Ngay me di
TTITLE7=Ngay xua me dung ru con
TTITLE8=Tro ve voi me ta thoi
TTITLE9=Ngan nam ca dao me
EXTD=
EXTT0=
EXTT1=
EXTT2=
EXTT3=
EXTT4=
EXTT5=
EXTT6=
EXTT7=
EXTT8=
EXTT9=
PLAYORDER=
